<?xml version="1.0" encoding="utf-8"?>
<!-- Generator: Adobe Illustrator 27.5.0, SVG Export Plug-In . SVG Version: 6.00 Build 0)  -->
<svg version="1.1" xmlns="http://www.w3.org/2000/svg" xmlns:xlink="http://www.w3.org/1999/xlink" x="0px" y="0px"
	 viewBox="0 0 500 500" style="enable-background:new 0 0 500 500;" xml:space="preserve">
<g id="BACKGROUND">
	<rect style="fill:#FFFFFF;" width="500" height="500"/>
</g>
<g id="OBJECTS">
	<g>
		<defs>
			<rect id="SVGID_1_" width="500" height="500"/>
		</defs>
		<clipPath id="SVGID_00000046313787445312234020000017207488038040536759_">
			<use xlink:href="#SVGID_1_"  style="overflow:visible;"/>
		</clipPath>
		
			<rect y="479.829" style="clip-path:url(#SVGID_00000046313787445312234020000017207488038040536759_);fill:#D2DFEE;" width="520" height="44.837"/>
		<g style="clip-path:url(#SVGID_00000046313787445312234020000017207488038040536759_);">
			<g>
				<rect x="223.689" y="209.335" style="fill:#AEBFCE;" width="196.323" height="299.149"/>
				<g>
					<rect x="201.242" y="170.966" style="fill:#D2DFEE;" width="207.236" height="42.341"/>
					
						<rect x="408.478" y="170.966" transform="matrix(-1 -1.224647e-16 1.224647e-16 -1 855.7571 384.2733)" style="fill:#9BB0C4;" width="38.8" height="42.341"/>
					<rect x="206.618" y="176.059" style="fill:#FFFFFF;" width="134.013" height="32.155"/>
					<rect x="215.074" y="189.742" style="fill:#EDEEEF;" width="77.782" height="4.79"/>
					<rect x="215.074" y="181.803" style="fill:#EDEEEF;" width="77.782" height="4.79"/>
					<rect x="215.074" y="197.681" style="fill:#EDEEEF;" width="77.782" height="4.79"/>
					<circle style="fill:#EDEEEF;" cx="355.702" cy="192.137" r="5.544"/>
					<circle style="fill:#FFFFFF;" cx="371.632" cy="192.137" r="5.544"/>
					<circle style="fill:#EDEEEF;" cx="387.561" cy="192.137" r="5.544"/>
					<rect x="298.044" y="181.803" style="fill:#EDEEEF;" width="35.222" height="20.668"/>
				</g>
				<g>
					<rect x="201.242" y="228.505" style="fill:#D2DFEE;" width="207.236" height="42.341"/>
					
						<rect x="408.478" y="228.505" transform="matrix(-1 -1.224647e-16 1.224647e-16 -1 855.7571 499.3503)" style="fill:#9BB0C4;" width="38.8" height="42.341"/>
					<rect x="206.618" y="233.598" style="fill:#FFFFFF;" width="134.013" height="32.155"/>
					<rect x="215.074" y="247.28" style="fill:#EDEEEF;" width="77.782" height="4.79"/>
					<rect x="215.074" y="239.341" style="fill:#EDEEEF;" width="77.782" height="4.79"/>
					<rect x="215.074" y="255.219" style="fill:#EDEEEF;" width="77.782" height="4.79"/>
					<circle style="fill:#EDEEEF;" cx="355.702" cy="249.675" r="5.544"/>
					<circle style="fill:#FFFFFF;" cx="371.632" cy="249.675" r="5.544"/>
					<circle style="fill:#EDEEEF;" cx="387.561" cy="249.675" r="5.544"/>
					<rect x="298.044" y="239.341" style="fill:#EDEEEF;" width="35.222" height="20.669"/>
				</g>
				<g>
					<rect x="201.242" y="286.043" style="fill:#D2DFEE;" width="207.236" height="42.341"/>
					
						<rect x="408.478" y="286.043" transform="matrix(-1 -1.224647e-16 1.224647e-16 -1 855.7571 614.4272)" style="fill:#9BB0C4;" width="38.8" height="42.341"/>
					<rect x="206.618" y="291.136" style="fill:#FFFFFF;" width="134.013" height="32.155"/>
					<rect x="215.074" y="304.819" style="fill:#EDEEEF;" width="77.782" height="4.79"/>
					<rect x="215.074" y="296.879" style="fill:#EDEEEF;" width="77.782" height="4.79"/>
					<rect x="215.074" y="312.758" style="fill:#EDEEEF;" width="77.782" height="4.79"/>
					<circle style="fill:#EDEEEF;" cx="355.702" cy="307.214" r="5.544"/>
					<circle style="fill:#FFFFFF;" cx="371.632" cy="307.214" r="5.544"/>
					<circle style="fill:#EDEEEF;" cx="387.561" cy="307.214" r="5.544"/>
					<rect x="298.044" y="296.879" style="fill:#EDEEEF;" width="35.222" height="20.668"/>
				</g>
				<g>
					<rect x="201.242" y="343.582" style="fill:#D2DFEE;" width="207.236" height="42.341"/>
					
						<rect x="408.478" y="343.582" transform="matrix(-1 -1.224647e-16 1.224647e-16 -1 855.7571 729.5041)" style="fill:#9BB0C4;" width="38.8" height="42.341"/>
					<rect x="206.618" y="348.674" style="fill:#FFFFFF;" width="134.013" height="32.155"/>
					<rect x="215.074" y="362.357" style="fill:#EDEEEF;" width="77.782" height="4.79"/>
					<rect x="215.074" y="354.418" style="fill:#EDEEEF;" width="77.782" height="4.79"/>
					<rect x="215.074" y="370.296" style="fill:#EDEEEF;" width="77.782" height="4.79"/>
					<circle style="fill:#EDEEEF;" cx="355.702" cy="364.752" r="5.544"/>
					<circle style="fill:#FFFFFF;" cx="371.632" cy="364.752" r="5.544"/>
					<circle style="fill:#EDEEEF;" cx="387.561" cy="364.752" r="5.544"/>
					<rect x="298.044" y="354.418" style="fill:#EDEEEF;" width="35.222" height="20.668"/>
				</g>
				<g>
					<rect x="201.242" y="401.12" style="fill:#D2DFEE;" width="207.236" height="42.341"/>
					
						<rect x="408.478" y="401.12" transform="matrix(-1 -1.224647e-16 1.224647e-16 -1 855.7571 844.5811)" style="fill:#9BB0C4;" width="38.8" height="42.341"/>
					<rect x="206.618" y="406.213" style="fill:#FFFFFF;" width="134.013" height="32.155"/>
					<rect x="215.074" y="419.896" style="fill:#EDEEEF;" width="77.782" height="4.79"/>
					<rect x="215.074" y="411.956" style="fill:#EDEEEF;" width="77.782" height="4.79"/>
					<rect x="215.074" y="427.835" style="fill:#EDEEEF;" width="77.782" height="4.79"/>
					<circle style="fill:#EDEEEF;" cx="355.702" cy="422.29" r="5.544"/>
					<circle style="fill:#FFFFFF;" cx="371.632" cy="422.29" r="5.544"/>
					<circle style="fill:#EDEEEF;" cx="387.561" cy="422.29" r="5.544"/>
					<rect x="298.044" y="411.956" style="fill:#EDEEEF;" width="35.222" height="20.668"/>
				</g>
				<g>
					<path style="fill:#7E99AF;" d="M428.605,187.775h-5.451v-9.61h5.451c1.726,0,3.125,1.399,3.125,3.125v3.361
						C431.73,186.376,430.331,187.775,428.605,187.775z"/>
					<path style="fill:#7E99AF;" d="M428.605,206.108h-5.451v-9.61h5.451c1.726,0,3.125,1.399,3.125,3.125v3.361
						C431.73,204.709,430.331,206.108,428.605,206.108z"/>
				</g>
				<g>
					<path style="fill:#7E99AF;" d="M428.605,245.314h-5.451v-9.61h5.451c1.726,0,3.125,1.399,3.125,3.125v3.361
						C431.73,243.915,430.331,245.314,428.605,245.314z"/>
					<path style="fill:#7E99AF;" d="M428.605,263.647h-5.451v-9.61h5.451c1.726,0,3.125,1.399,3.125,3.125v3.361
						C431.73,262.248,430.331,263.647,428.605,263.647z"/>
				</g>
				<g>
					<path style="fill:#7E99AF;" d="M428.605,302.852h-5.451v-9.61h5.451c1.726,0,3.125,1.399,3.125,3.125v3.361
						C431.73,301.453,430.331,302.852,428.605,302.852z"/>
					<path style="fill:#7E99AF;" d="M428.605,321.185h-5.451v-9.61h5.451c1.726,0,3.125,1.399,3.125,3.125v3.36
						C431.73,319.786,430.331,321.185,428.605,321.185z"/>
				</g>
				<g>
					<path style="fill:#7E99AF;" d="M428.605,360.391h-5.451v-9.61h5.451c1.726,0,3.125,1.399,3.125,3.125v3.36
						C431.73,358.991,430.331,360.391,428.605,360.391z"/>
					<path style="fill:#7E99AF;" d="M428.605,378.724h-5.451v-9.61h5.451c1.726,0,3.125,1.399,3.125,3.125v3.361
						C431.73,377.325,430.331,378.724,428.605,378.724z"/>
				</g>
				<g>
					<path style="fill:#7E99AF;" d="M428.605,417.929h-5.451v-9.61h5.451c1.726,0,3.125,1.399,3.125,3.125v3.361
						C431.73,416.53,430.331,417.929,428.605,417.929z"/>
					<path style="fill:#7E99AF;" d="M428.605,436.262h-5.451v-9.61h5.451c1.726,0,3.125,1.399,3.125,3.125v3.361
						C431.73,434.863,430.331,436.262,428.605,436.262z"/>
				</g>
				<g>
					<rect x="201.242" y="458.659" style="fill:#D2DFEE;" width="207.236" height="42.341"/>
					
						<rect x="408.478" y="458.659" transform="matrix(-1 -1.224647e-16 1.224647e-16 -1 855.7571 959.658)" style="fill:#9BB0C4;" width="38.8" height="42.341"/>
					<rect x="206.618" y="463.751" style="fill:#FFFFFF;" width="134.013" height="32.155"/>
					<rect x="215.074" y="477.434" style="fill:#EDEEEF;" width="77.782" height="4.79"/>
					<rect x="215.074" y="469.495" style="fill:#EDEEEF;" width="77.782" height="4.79"/>
					<rect x="215.074" y="485.373" style="fill:#EDEEEF;" width="77.782" height="4.79"/>
					<circle style="fill:#EDEEEF;" cx="355.702" cy="479.829" r="5.544"/>
					<circle style="fill:#FFFFFF;" cx="371.632" cy="479.829" r="5.544"/>
					<circle style="fill:#EDEEEF;" cx="387.561" cy="479.829" r="5.544"/>
					<rect x="298.044" y="469.495" style="fill:#EDEEEF;" width="35.222" height="20.668"/>
				</g>
				<g>
					<path style="fill:#7E99AF;" d="M428.605,475.467h-5.451v-9.61h5.451c1.726,0,3.125,1.399,3.125,3.125v3.361
						C431.73,474.068,430.331,475.467,428.605,475.467z"/>
					<path style="fill:#7E99AF;" d="M428.605,493.801h-5.451v-9.61h5.451c1.726,0,3.125,1.399,3.125,3.125v3.361
						C431.73,492.402,430.331,493.801,428.605,493.801z"/>
				</g>
				<path style="fill:none;stroke:#7E99AF;stroke-miterlimit:10;" d="M427.442,182.97h10.754c2.39,0,4.328,1.938,4.328,4.328v9.678
					c0,2.39-1.938,4.328-4.328,4.328h-10.754"/>
				<path style="fill:none;stroke:#7E99AF;stroke-miterlimit:10;" d="M442.524,192.137h10.754c2.39,0,4.328,1.938,4.328,4.328
					v48.849c0,2.39-1.938,4.328-4.328,4.328h-10.754"/>
				<path style="fill:none;stroke:#7E99AF;stroke-miterlimit:10;" d="M442.524,249.675h10.754c2.39,0,4.328,1.938,4.328,4.328
					v48.408c0,2.39-1.938,4.328-4.328,4.328h-10.754"/>
				<path style="fill:none;stroke:#7E99AF;stroke-miterlimit:10;" d="M442.524,306.739h10.754c2.39,0,4.328,1.938,4.328,4.328
					v48.408c0,2.39-1.938,4.328-4.328,4.328h-10.754"/>
				<path style="fill:none;stroke:#7E99AF;stroke-miterlimit:10;" d="M442.524,363.803h10.754c2.39,0,4.328,1.938,4.328,4.328
					v48.408c0,2.39-1.938,4.328-4.328,4.328h-10.754"/>
				<path style="fill:none;stroke:#7E99AF;stroke-miterlimit:10;" d="M442.524,420.867h10.754c2.39,0,4.328,1.938,4.328,4.328
					v48.408c0,2.39-1.938,4.328-4.328,4.328h-10.754"/>
				<path style="fill:none;stroke:#7E99AF;stroke-miterlimit:10;" d="M427.442,240.508h10.754c2.39,0,4.328,1.938,4.328,4.328v9.678
					c0,2.39-1.938,4.328-4.328,4.328h-10.754"/>
				<path style="fill:none;stroke:#7E99AF;stroke-miterlimit:10;" d="M427.442,298.047h10.754c2.39,0,4.328,1.938,4.328,4.328v9.678
					c0,2.39-1.938,4.328-4.328,4.328h-10.754"/>
				<path style="fill:none;stroke:#7E99AF;stroke-miterlimit:10;" d="M427.442,355.585h10.754c2.39,0,4.328,1.938,4.328,4.328v9.678
					c0,2.39-1.938,4.328-4.328,4.328h-10.754"/>
				<path style="fill:none;stroke:#7E99AF;stroke-miterlimit:10;" d="M427.442,413.124h10.754c2.39,0,4.328,1.938,4.328,4.328v9.678
					c0,2.39-1.938,4.328-4.328,4.328h-10.754"/>
				<path style="fill:none;stroke:#7E99AF;stroke-miterlimit:10;" d="M427.442,470.662h10.754c2.39,0,4.328,1.938,4.328,4.328v9.678
					c0,2.39-1.938,4.328-4.328,4.328h-10.754"/>
			</g>
			<g>
				<path style="fill:#DFAB94;" d="M329.929,247.28c4.446,1.749,9.87,4.539,9.327,6.757c-0.542,2.217-9.327,14.085-9.327,14.085
					l-17.039-6.823l6.454-14.019H329.929z"/>
				<path style="opacity:0.39;fill:#FCA695;" d="M329.929,247.28c4.446,1.749,9.87,4.539,9.327,6.757
					c-0.542,2.217-9.327,14.085-9.327,14.085l-17.039-6.823l6.454-14.019H329.929z"/>
				<path style="fill:#DFAB94;" d="M294.855,264.943c0,0,19.273-23.347,21.163-25.171c1.89-1.824,12.093-0.73,13.983-0.73
					c1.889,0,15.872,0.73,18.517,1.824c2.645,1.094,5.669,3.648,1.89,5.837c-3.779,2.189-16.25,1.824-20.029,2.918
					c-3.779,1.094-7.18,2.554-6.424,6.567c0.756,4.013,4.157,6.202,7.558,5.837c3.401-0.365,8.202-7.964,10.203-8.026
					c2.002-0.062,6.802,0,4.913,2.918c-1.889,2.918-8.314,8.755-10.581,11.674c-2.267,2.918-9.07,4.742-13.983,6.202
					c-4.913,1.459-12.045,7.528-12.045,7.528S295.58,275.95,294.855,264.943z"/>
				<path style="fill:#F7C272;" d="M190.468,228.374c0,0,10.123,5.441,19.969,16.693c9.846,11.252,38.446,59.544,38.446,59.544
					l47.354-41.259l13.783,18.97c0,0-30.661,64.017-57.386,82.302c-26.724,18.285-57.669-40.321-57.669-40.321L190.468,228.374z"/>
				<g>
					<path style="fill:none;stroke:#A36B28;stroke-linecap:round;stroke-miterlimit:10;" d="M246.793,321.185
						c0,0-1.45-7.053,2.09-16.575l39.941-34.8"/>
					
						<line style="fill:none;stroke:#A36B28;stroke-linecap:round;stroke-miterlimit:10;" x1="248.883" y1="304.61" x2="220.263" y2="258.617"/>
					<path style="fill:none;stroke:#A36B28;stroke-linecap:round;stroke-miterlimit:10;" d="M293.64,312.758
						c-9.286,22.21-38.056,49.671-38.056,49.671"/>
				</g>
				<polygon style="fill:#683D36;" points="68.934,508.484 130.866,508.484 139.125,457.108 143.979,508.484 195.931,508.484 
					192.133,408.421 191.404,389.377 84.692,389.377 83.147,401.032 				"/>
				<path style="fill:none;stroke:#7F5571;stroke-linecap:round;stroke-miterlimit:10;" d="M101.695,396.461
					c-9.503,34.69-21.509,118.039-21.509,118.039"/>
				<path style="opacity:0.25;fill:#4A2D3E;" d="M83.147,401.032c51.364,15.562,90.432,11.263,108.986,7.389l-0.729-19.044H84.692
					L83.147,401.032z"/>
				<path style="fill:#87A1CF;" d="M70.926,299.108c2.982,34.649,8.543,74.283,10.959,76.698c3.743,3.744,2.808,13.57,2.808,13.57
					s95.013,11.698,106.712,0c0.468-7.955-0.936-11.698,1.404-14.038c2.34-2.34,3.276-4.679,3.276-10.306
					c0-3.395,7.215-47.022,7.291-84.414c0.054-24.344-2.927-46.043-12.906-52.246c-0.882-0.544-1.796-1.077-2.764-1.61
					c-6.41-3.537-14.604-6.671-23.789-9c-15.137-3.82-33.006-5.43-50.178-2.938c-0.947,0.131-1.883,0.283-2.83,0.446
					c-9.446,1.621-16.846,3.471-22.613,6.061c-12.547,5.615-17.444,14.691-19.044,32.31
					C68.423,262.74,69.293,280.184,70.926,299.108z"/>
				<path style="opacity:0.25;fill:#4A2D3E;" d="M88.11,320.311c9.875,22.895,73.466,39.511,108.44,34.166
					c34.974-5.345,15.041,21.937-31.507,24.248c-46.548,2.311-86.967-19.516-86.967-19.516L88.11,320.311z"/>
				<path style="fill:#476AA8;" d="M187.355,423.077h49.857c4.253,0,8.408-3.406,9.28-7.607l17.111-82.473
					c0.872-4.201-1.87-7.607-6.123-7.607h-49.857c-4.253,0-8.408,3.406-9.279,7.607l-17.111,82.473
					C180.36,419.671,183.102,423.077,187.355,423.077z"/>
				<path style="fill:#699ACC;" d="M189.631,424.948h49.857c4.253,0,8.408-3.406,9.279-7.607l17.111-82.473
					c0.872-4.201-1.87-7.607-6.123-7.607h-49.857c-4.253,0-8.408,3.406-9.28,7.607l-17.111,82.473
					C182.636,421.543,185.378,424.948,189.631,424.948z"/>
				<path style="fill:#26426D;" d="M244.747,352.419h8.996c0.767,0,1.517-0.615,1.674-1.372l3.087-14.881
					c0.157-0.758-0.337-1.373-1.105-1.373h-8.996c-0.767,0-1.517,0.615-1.674,1.373l-3.087,14.881
					C243.485,351.805,243.98,352.419,244.747,352.419z"/>
				<path style="fill:#683D36;" d="M70.926,299.108c6.54,5.724,12.591,8.728,16.639,5.811c13.744-9.903,19.24-29.154,15.388-52.246
					c-2.361-14.201-9.511-25.073-14.658-31.341c-12.547,5.615-17.444,14.691-19.044,32.31
					C68.423,262.74,69.293,280.184,70.926,299.108z"/>
				<path style="fill:#6284B5;" d="M113.737,214.825c-0.055,6.148,4.451,14.245,20.709,21.308
					c22.483,9.772,29.817,11.241,32.255-7.814c0.566-4.418-0.62-7.868-2.786-10.556
					C148.778,213.944,130.909,212.333,113.737,214.825z"/>
				<path style="fill:#5A2402;" d="M186.307,145.202c1.13-0.316,2.353,0.369,3.004,1.345c0.652,0.975,0.849,2.178,0.977,3.344
					c0.063,0.572,0.111,1.159-0.028,1.718c-0.221,0.883-0.877,1.582-1.509,2.237c-0.003-0.186,0.314-0.262,0.467-0.156
					c1.502,1.037,2.613,2.77,2.532,4.593c-0.08,1.824-1.587,3.586-3.412,3.609c1.137,1.122,0.731,3.16-0.354,4.333
					c-1.085,1.172-2.871,1.519-4.424,1.147c-1.553-0.371-2.895-1.366-3.992-2.527c-3.669-3.879-4.844-9.929-2.894-14.9
					c0.492-1.253,1.19-2.466,2.257-3.286c1.124-0.864,2.548-1.215,3.927-1.545C184.003,144.84,185.23,144.725,186.307,145.202z"/>
				<path style="fill:#DFAB94;" d="M123.491,221.837c7.769,8.416,33.91,14.157,37.381,11.264c1.688-1.405,1.936-7.048,1.759-12.479
					c-0.201-5.726-0.897-11.227-0.897-11.227s-15.43-3.861-25.359-9.882c-1.924-1.157-9.563-10.498-10.921-11.808
					C122.274,210.835,120.045,218.104,123.491,221.837z"/>
				<path style="opacity:0.39;fill:#FCA695;" d="M132.821,198.686c0,0,2.031,8.973,10.413,15.903
					c5.431,4.498,14.025,5.726,19.397,6.033c-0.201-5.726-0.897-11.227-0.897-11.227s-15.43-3.861-25.359-9.882L132.821,198.686z"/>
				<path style="fill:#DFAB94;" d="M186.286,158.15c1.909,8.577,2.127,42.607-6.91,50.661c-13.3,11.854-45.604,2.318-54.355-19.371
					c-7.424-18.398-6.622-49.758,13.728-55.626C163.489,126.679,182.35,140.471,186.286,158.15z"/>
				<path style="fill:none;stroke:#B5574B;stroke-linecap:round;stroke-miterlimit:10;" d="M166.943,168.695
					c0,0,4.771,14.312,3.036,17.564c-1.735,3.253-7.156,2.168-8.674,0.217"/>
				<path style="fill:#5A2402;" d="M110.154,155.132c-0.224,3.778,0.094,8.76,3.424,10.578c-1.594,3.247-0.425,7.579,2.574,9.598
					c1.865,1.24,4.191,0.838,6.127,1.972c1.523,0.909,3.483,0.815,5.112,0.142c1.641-0.685,2.999-1.877,4.25-3.129
					c1.358-1.369,2.668-2.904,3.105-4.781c0.437-1.877-0.614-4.132-2.397-4.876c2.279-0.271,3.896-2.609,4.049-4.899
					c0.154-2.29-1.181-4.144-2.278-6.151c2.031,1.771,5.431,1.24,7.308-0.697c1.889-1.936,2.255-4.427,1.971-7.119
					c1.37,2.113,4.014,3.329,6.505,2.975c2.503-0.354,4.227-2.007,4.947-4.427c-0.165,2.042,1.263,3.908,2.963,5.053
					c1.96,1.311,4.415,1.96,6.741,1.511c2.314-0.46,4.215-2.161,5.041-4.368c0.413,1.877,2.031,3.483,3.943,3.742
					c1.912,0.26,3.553-0.295,4.167-2.125c1.004,2.184,3.66,3.365,6.033,2.963c0.992-0.153,1.913-0.555,2.727-1.133
					c0.496,1.181,0.826,2.408,0.862,3.624c2.16,0.578,7.662-3.471,6.788-8.961c-0.472-2.999-2.409-4.71-4.073-5.631
					c0.366-0.437,0.614-1.039,0.732-1.688c0.26-1.547-0.968-2.975-2.338-3.743c1.83-0.992,2.338-3.601,1.381-5.442
					c-0.968-1.842-3.046-2.893-5.112-3.093c-0.831-0.076-1.89,0.067-2.913,0.365c-0.304-0.531-0.762-1.037-1.364-1.478
					c-1.939-1.419-4.271-2.25-6.661-2.487c-0.551-2.206-2.253-4.132-4.433-4.807c-2.68-0.826-6.836,0.791-8.406,3.105
					c0.425-1.535-0.567-3.199-1.948-4.002c-1.381-0.815-3.046-0.933-4.64-0.897c-0.968,0.024-1.948,0.094-2.822,0.496
					c-0.885,0.402-1.771,2.007-2.491,2.219c-0.708,0.224-2.314-1.145-3.199-1.464c-2.432-0.838-5.23-0.685-7.497,0.578
					c-3.554,1.96-4.616,5.561-4.663,9.315c-2.68-1.464-5.584-2.137-8.559-1.086c-2.869,1.015-5.289,4.156-6.092,7.095
					c-9.031-2.68-13.081,13.801-5.761,17.437C111.075,150.138,110.296,152.829,110.154,155.132z"/>
				<path style="fill:#5A2402;" d="M171.931,170.213c0,1.916,1.165,3.469,2.602,3.469c1.437,0,2.602-1.553,2.602-3.469
					c0-1.916-1.165-3.47-2.602-3.47C173.096,166.743,171.931,168.297,171.931,170.213z"/>
				<ellipse style="fill:#5A2402;" cx="151.331" cy="171.08" rx="2.602" ry="3.47"/>
				<path style="fill:#FFFFFF;" d="M166.51,193.849c0,0-5.855,0-8.89-1.518c-3.036-1.518-4.337-1.301-4.771,0.434
					c-0.434,1.735,2.385,5.421,6.505,6.288c4.12,0.867,7.156-0.65,8.674-2.819C169.546,194.066,168.028,194.066,166.51,193.849z"/>
				<path style="fill:#DFAB94;" d="M130.08,174.983c0,0-3.686-6.939-9.324-4.554c-4.932,2.087-4.12,7.156-2.602,11.059
					c1.518,3.903,6.072,7.806,9.324,7.59C130.731,188.861,133.983,184.741,130.08,174.983z"/>
				<path style="fill:none;stroke:#B5574B;stroke-linecap:round;stroke-miterlimit:10;" d="M128.128,184.525
					c2.096-1.952,0.447-8.832-3.253-10.842c-3.325-1.807-4.771,2.819-4.771,2.819"/>
				<path style="opacity:0.39;fill:#FCA695;" d="M128.996,183.007c0,0-5.421,2.385-6.722-5.204c-0.867-4.12,2.602-4.12,2.602-4.12
					S129.213,176.935,128.996,183.007z"/>
				<path style="fill:none;stroke:#B5574B;stroke-linecap:round;stroke-miterlimit:10;" d="M127.912,177.08
					c0,0-3.759-0.434-4.192,3.036"/>
				<path style="fill:none;stroke:#B5574B;stroke-linecap:round;stroke-miterlimit:10;" d="M162.028,214.16
					c0,0-25.009-0.289-36.574-24.286"/>
				<path style="fill:#5A2402;" d="M171.28,154.166c4.014-0.892,7.517,0.434,8.096,2.169c0.578,1.735-1.156,3.325-3.325,2.602
					c-2.168-0.723-4.337,1.301-6.072,0.578C168.244,158.792,167.377,155.034,171.28,154.166z"/>
				<path style="fill:#5A2402;" d="M153.012,155.323c-4.014-0.892-7.517,0.434-8.096,2.168c-0.578,1.735,1.157,3.325,3.325,2.602
					c2.168-0.723,4.337,1.301,6.072,0.578C156.048,159.949,156.915,156.19,153.012,155.323z"/>
				<polygon style="fill:#683D36;" points="161.329,258.617 172.081,273.279 162.795,290.385 152.042,274.745 				"/>
				<polygon style="fill:#683D36;" points="162.306,294.295 173.059,308.958 163.772,326.064 153.02,310.424 				"/>
				<polygon style="fill:#683D36;" points="147.644,277.678 158.396,292.34 149.11,309.446 138.358,293.806 				"/>
				<polygon style="fill:#683D36;" points="174.525,275.723 185.277,290.385 175.991,307.491 165.239,291.851 				"/>
				<path style="fill:#DFAB94;" d="M162.062,373.919c0,0,12.728-1.104,16.376-5.157c3.648-4.053,13.662-6.333,13.662-6.333
					s-1.865,7.12-0.747,9.114c1.058,1.889,5.731,2.893,8.163,2.893c2.432,0,17.835-0.811,20.267,2.027
					c2.432,2.837-1.621,16.619-6.485,21.888c-4.864,5.269-22.699,6.08-29.995,4.053c-7.296-2.027-20.409-2.363-20.409-2.363
					S157.846,384.345,162.062,373.919z"/>
				<path style="fill:#FFFFFF;" d="M162.9,215.749c0,0,2.264,0.906,5.434,5.887c3.17,4.981,7.246,18.567,3.623,18.567
					c-3.623,0-3.623-9.51-13.133-6.34c-9.51,3.17-9.51,19.02-21.738,10.869c-12.227-8.152-22.245-12.716-23.35-29.907
					c2.065-7.681,6.141-12.209,9.764-9.039C127.123,208.956,165.164,249.714,162.9,215.749z"/>
				<path style="fill:#F7C272;" d="M79.862,226.283c0,0,12.647,10.448,15.946,29.693c3.299,19.245-1.626,38.319-7.698,64.335
					c-1.79,7.667-3.849,19.245-3.849,19.245s43.563,25.196,77.801,34.363c7.882,9.415,4.13,21.724,0.831,26.123
					c-3.299,4.399-63.235-1.65-83.58-8.798c-20.345-7.148-31.343-14.846-36.841-26.394c-5.499-11.547,10.997-88.529,15.946-107.774
					C63.366,237.83,79.862,226.283,79.862,226.283z"/>
				<path style="fill:none;stroke:#A36B28;stroke-linecap:round;stroke-miterlimit:10;" d="M91.436,301.669
					c-1.03,8.824-7.175,37.887-7.175,37.887s-10.478,2.349-15.327,12.863"/>
				<path style="fill:none;stroke:#A36B28;stroke-linecap:round;stroke-miterlimit:10;" d="M84.261,339.556
					c0,0,31.223,16.407,38.558,19.652c7.335,3.244,24.906,10.188,24.906,10.188"/>
				<path style="fill:#683D36;" d="M187.704,226.763c4.57,9.729,11.263,27.336,15.67,53.856
					c0.054-24.344-2.927-46.043-12.906-52.246C189.586,227.829,188.672,227.296,187.704,226.763z"/>
				<path style="fill:#071F40;" d="M255.242,340.385c-0.358,1.853-2.168,3.356-4.042,3.356s-3.104-1.503-2.746-3.356
					s2.168-3.356,4.042-3.356C254.371,337.03,255.6,338.532,255.242,340.385z"/>
				<path style="fill:#071F40;" d="M254.768,346.944c-0.268,1.386-1.621,2.51-3.023,2.51s-2.321-1.124-2.053-2.51
					c0.268-1.386,1.621-2.51,3.023-2.51C254.117,344.434,255.036,345.558,254.768,346.944z"/>
				<path style="fill:none;stroke:#B5574B;stroke-linecap:round;stroke-miterlimit:10;" d="M344.8,248.136
					c0,0-15.399,0.68-17.887,2.763c-2.488,2.083-4.672,6.525-1.965,9.111c2.707,2.586,8.72,3.022,10.403,0.51"/>
			</g>
		</g>
		<g style="clip-path:url(#SVGID_00000046313787445312234020000017207488038040536759_);">
			<line style="fill:none;stroke:#A8C5E2;stroke-miterlimit:10;" x1="181.364" y1="70.674" x2="116.987" y2="70.674"/>
			<g>
				<g>
					<path style="fill:#BCCCDD;" d="M344.797,68.518c-12.444,0-22.531,10.087-22.531,22.531s10.087,22.545,22.531,22.545
						c12.445,0,22.545-10.101,22.545-22.545S357.241,68.518,344.797,68.518z M344.797,102.28c-6.194,0-11.231-5.023-11.231-11.231
						c0-6.194,5.036-11.231,11.231-11.231c6.208,0,11.231,5.036,11.231,11.231C356.028,97.257,351.005,102.28,344.797,102.28z"/>
					<path style="fill:#BCCCDD;" d="M348.731,78.548h-7.86c-1.91,0-3.458-1.548-3.458-3.458V61.103c0-1.91,1.548-3.458,3.458-3.458
						h7.86c1.91,0,3.458,1.548,3.458,3.458V75.09C352.188,77,350.64,78.548,348.731,78.548z"/>
					<path style="fill:#BCCCDD;" d="M338.737,79.432l-5.558,5.558c-1.35,1.35-3.54,1.35-4.89,0l-9.891-9.891
						c-1.35-1.35-1.35-3.54,0-4.89l5.558-5.558c1.35-1.35,3.54-1.35,4.89,0l9.891,9.891
						C340.088,75.892,340.088,78.081,338.737,79.432z"/>
					<path style="fill:#BCCCDD;" d="M332.296,87.123v7.86c0,1.91-1.548,3.458-3.458,3.458h-13.988c-1.91,0-3.458-1.548-3.458-3.458
						v-7.86c0-1.91,1.548-3.458,3.458-3.458h13.988C330.748,83.665,332.296,85.213,332.296,87.123z"/>
					<path style="fill:#BCCCDD;" d="M333.18,97.116l5.558,5.558c1.35,1.35,1.35,3.54,0,4.89l-9.891,9.891
						c-1.35,1.35-3.54,1.35-4.89,0l-5.558-5.558c-1.35-1.35-1.35-3.54,0-4.89l9.891-9.891
						C329.64,95.765,331.829,95.765,333.18,97.116z"/>
					<path style="fill:#BCCCDD;" d="M340.87,103.557h7.86c1.91,0,3.458,1.548,3.458,3.458v13.988c0,1.91-1.548,3.458-3.458,3.458
						h-7.86c-1.91,0-3.458-1.548-3.458-3.458v-13.988C337.413,105.105,338.961,103.557,340.87,103.557z"/>
					<path style="fill:#BCCCDD;" d="M350.863,102.674l5.558-5.558c1.35-1.35,3.54-1.35,4.89,0l9.89,9.89c1.35,1.35,1.35,3.54,0,4.89
						l-5.558,5.558c-1.35,1.35-3.54,1.351-4.89,0l-9.891-9.891C349.513,106.214,349.513,104.024,350.863,102.674z"/>
					<path style="fill:#BCCCDD;" d="M357.305,94.983v-7.86c0-1.91,1.548-3.458,3.458-3.458h13.988c1.91,0,3.458,1.548,3.458,3.458
						v7.86c0,1.91-1.548,3.458-3.458,3.458h-13.988C358.853,98.441,357.305,96.893,357.305,94.983z"/>
					<path style="fill:#BCCCDD;" d="M356.421,84.99l-5.558-5.558c-1.35-1.35-1.35-3.54,0-4.89l9.891-9.891
						c1.35-1.35,3.54-1.35,4.89,0l5.558,5.558c1.35,1.35,1.35,3.54,0,4.89l-9.891,9.891C359.961,86.34,357.772,86.34,356.421,84.99z
						"/>
				</g>
				<g>
					<path style="fill:#BCCCDD;" d="M404.982,44.881c-6.114,0-11.069,4.955-11.069,11.069c0,6.114,4.955,11.076,11.069,11.076
						c6.114,0,11.076-4.962,11.076-11.076C416.058,49.837,411.096,44.881,404.982,44.881z M404.982,61.468
						c-3.043,0-5.517-2.467-5.517-5.518c0-3.043,2.474-5.517,5.517-5.517c3.05,0,5.517,2.474,5.517,5.517
						C410.5,59.001,408.032,61.468,404.982,61.468z"/>
					<path style="fill:#BCCCDD;" d="M405.156,49.809h-0.343c-1.91,0-3.458-1.548-3.458-3.458v-3.354c0-1.91,1.548-3.458,3.458-3.458
						h0.343c1.91,0,3.458,1.548,3.458,3.458v3.354C408.613,48.261,407.065,49.809,405.156,49.809z"/>
					<path style="fill:#BCCCDD;" d="M400.762,51.487l-0.243,0.243c-1.35,1.35-3.54,1.35-4.89,0l-2.372-2.371
						c-1.35-1.35-1.35-3.54,0-4.89l0.243-0.243c1.35-1.35,3.54-1.35,4.89,0l2.371,2.371
						C402.112,47.947,402.112,50.137,400.762,51.487z"/>
					<path style="fill:#BCCCDD;" d="M398.841,55.781v0.343c0,1.91-1.548,3.458-3.458,3.458h-3.354c-1.91,0-3.458-1.548-3.458-3.458
						v-0.343c0-1.91,1.548-3.458,3.458-3.458h3.354C397.292,52.323,398.841,53.871,398.841,55.781z"/>
					<path style="fill:#BCCCDD;" d="M400.519,60.175l0.243,0.243c1.35,1.35,1.35,3.54,0,4.89l-2.371,2.371
						c-1.35,1.35-3.54,1.35-4.89,0l-0.243-0.243c-1.35-1.35-1.35-3.54,0-4.89l2.371-2.371
						C396.979,58.825,399.168,58.825,400.519,60.175z"/>
					<path style="fill:#BCCCDD;" d="M404.812,62.096h0.343c1.91,0,3.458,1.548,3.458,3.458v3.354c0,1.91-1.548,3.458-3.458,3.458
						h-0.343c-1.91,0-3.458-1.548-3.458-3.458v-3.354C401.354,63.644,402.902,62.096,404.812,62.096z"/>
					<path style="fill:#BCCCDD;" d="M409.206,60.418l0.243-0.243c1.35-1.35,3.54-1.35,4.89,0l2.371,2.371
						c1.35,1.35,1.35,3.54,0,4.89l-0.243,0.243c-1.35,1.351-3.54,1.351-4.89,0l-2.371-2.371
						C407.856,63.958,407.856,61.768,409.206,60.418z"/>
					<path style="fill:#BCCCDD;" d="M411.127,56.124v-0.343c0-1.91,1.548-3.458,3.458-3.458h3.354c1.91,0,3.458,1.548,3.458,3.458
						v0.343c0,1.91-1.548,3.458-3.458,3.458h-3.354C412.675,59.582,411.127,58.034,411.127,56.124z"/>
					<path style="fill:#BCCCDD;" d="M409.449,51.73l-0.243-0.243c-1.35-1.35-1.35-3.54,0-4.89l2.371-2.371
						c1.35-1.35,3.54-1.35,4.89,0l0.243,0.243c1.35,1.35,1.35,3.54,0,4.89l-2.371,2.371C412.989,53.081,410.8,53.081,409.449,51.73z
						"/>
				</g>
				<path style="fill:none;stroke:#BCCCDD;stroke-miterlimit:10;" d="M441.374,112.79h-5.555c-0.216-0.62-0.467-1.221-0.751-1.805
					l3.93-3.93c1.35-1.35,1.35-3.54,0-4.89l-2.872-2.872c-1.35-1.35-3.54-1.35-4.89,0l-3.933,3.933
					c-0.583-0.283-1.183-0.534-1.802-0.749v-5.56c0-1.91-1.548-3.458-3.458-3.458h-4.062c-1.91,0-3.458,1.548-3.458,3.458v5.558
					c-0.619,0.215-1.219,0.466-1.803,0.749l-3.932-3.932c-1.35-1.35-3.54-1.35-4.89,0l-2.872,2.872c-1.35,1.35-1.35,3.54,0,4.89
					l3.932,3.932c-0.283,0.584-0.534,1.184-0.749,1.803h-5.558c-1.91,0-3.458,1.548-3.458,3.458v4.062
					c0,1.91,1.548,3.458,3.458,3.458h5.56c0.215,0.619,0.466,1.219,0.749,1.802l-3.934,3.934c-1.35,1.35-1.35,3.54,0,4.89
					l2.872,2.872c1.35,1.35,3.54,1.35,4.89,0l3.931-3.93c0.584,0.284,1.185,0.536,1.805,0.751v5.555c0,1.91,1.548,3.458,3.458,3.458
					h4.062c1.91,0,3.458-1.548,3.458-3.458v-5.557c0.619-0.215,1.22-0.467,1.804-0.751l3.932,3.932c1.35,1.35,3.54,1.35,4.89,0
					l2.872-2.872c1.35-1.35,1.35-3.54,0-4.89l-3.931-3.931c0.284-0.584,0.535-1.185,0.751-1.804h5.556
					c1.91,0,3.458-1.548,3.458-3.458v-4.062C444.832,114.339,443.284,112.79,441.374,112.79z M428.353,118.276
					c0,4.613-3.731,8.344-8.344,8.344c-4.602,0-8.344-3.731-8.344-8.344c0-4.602,3.742-8.344,8.344-8.344
					C424.621,109.933,428.353,113.674,428.353,118.276z"/>
			</g>
			<path style="fill:#BCCCDD;" d="M197.087,79.632h51.829c6.008,0,10.878-4.87,10.878-10.878l0,0c0-6.008-4.87-10.878-10.878-10.878
				h-7.404c0,0,2.742-24.863-23.583-24.863c-26.326,0-23.766,28.702-23.766,28.702h-3.839c-4.947,0-8.958,4.011-8.958,8.958l0,0
				c0,4.947,4.011,8.958,8.958,8.958H197.087z"/>
			<polyline style="fill:none;stroke:#A8C5E2;stroke-miterlimit:10;" points="222.417,79.632 222.417,148.396 355.702,148.396 
				355.702,171.08 			"/>
			<path style="fill:#BCCCDD;" d="M107.456,100.295H43.901c-7.331,0-13.274-5.943-13.274-13.273V54.326
				c0-7.331,5.943-13.273,13.274-13.273h63.555c7.331,0,13.273,5.943,13.273,13.273v32.695
				C120.729,94.352,114.786,100.295,107.456,100.295z"/>
			<g>
				<rect x="33.451" y="124.461" style="fill:#E2EAF2;" width="57.985" height="7.434"/>
				<rect x="33.451" y="139.382" style="fill:#E2EAF2;" width="28.992" height="7.434"/>
				<rect x="33.451" y="154.304" style="fill:#E2EAF2;" width="43.894" height="7.434"/>
			</g>
			<text transform="matrix(1 0 0 1 43.8764 79.632)" style="fill:#FFFFFF; font-family:'Montserrat-Bold'; font-size:21.8721px;">HOST</text>
			<path style="fill:#2C4C7C;" d="M222.417,83.665L222.417,83.665c-2.227,0-4.033-1.806-4.033-4.033l0,0
				c0-2.227,1.806-4.033,4.033-4.033l0,0c2.227,0,4.033,1.806,4.033,4.033l0,0C226.45,81.859,224.644,83.665,222.417,83.665z"/>
			<path style="fill:#2C4C7C;" d="M181.364,74.707L181.364,74.707c-2.227,0-4.033-1.806-4.033-4.033l0,0
				c0-2.227,1.806-4.033,4.033-4.033l0,0c2.227,0,4.033,1.806,4.033,4.033l0,0C185.397,72.901,183.591,74.707,181.364,74.707z"/>
			<path style="fill:#2C4C7C;" d="M120.729,74.707L120.729,74.707c-2.227,0-4.033-1.806-4.033-4.033l0,0
				c0-2.227,1.806-4.033,4.033-4.033l0,0c2.227,0,4.033,1.806,4.033,4.033l0,0C124.762,72.901,122.957,74.707,120.729,74.707z"/>
			<path style="fill:#2C4C7C;" d="M355.702,171.548L355.702,171.548c-2.227,0-4.033-1.806-4.033-4.033l0,0
				c0-2.227,1.806-4.033,4.033-4.033l0,0c2.227,0,4.033,1.806,4.033,4.033l0,0C359.735,169.742,357.929,171.548,355.702,171.548z"/>
		</g>
	</g>
</g>
</svg>
